# xmcd CD database file
#
# Track frame offsets:
#	150
#	54750
#	83102
#	102600
#	130447
#	161138
#	196252
#	210293
#
# Disc length: 3647 seconds
#
# Revision: 2
# Processed by: cddbd v1.4PL0 Copyright (c) Steve Scherf et al.
# Submitted via: CDex 1.50beta10
#
DISCID=670e3d08
DTITLE=Cyan - Pictures From The Other Side
DYEAR=1994
DGENRE=Symphonic Rock
TTITLE0=The Guardians
TTITLE1=Pictures From The Other Side
TTITLE2=Solitary Angel
TTITLE3=Broken Man
TTITLE4=All Around The World
TTITLE5=Tomorrow's Here Today
TTITLE6=Follow The Flow
TTITLE7=Nosferatu (Requiem For A Vampire)
EXTD=YEAR: 1994
EXTT0=
EXTT1=
EXTT2=
EXTT3=
EXTT4=
EXTT5=
EXTT6=
EXTT7=
PLAYORDER=
